<svg width="20" height="20" viewBox="0 0 20 20" fill="none" xmlns="http://www.w3.org/2000/svg">
<path d="M10 14C9.85648 13.9994 9.71477 13.9679 9.58449 13.9077C9.45422 13.8475 9.33843 13.7599 9.245 13.651L5.329 9.18197C5.15887 8.98365 5.04914 8.74073 5.01281 8.48197C4.97647 8.22322 5.01506 7.95947 5.124 7.72197C5.21378 7.51007 5.36337 7.32894 5.55447 7.20071C5.74556 7.07248 5.96989 7.00273 6.2 6.99997H13.8C14.0298 7.00252 14.2538 7.07211 14.4446 7.20019C14.6354 7.32827 14.7846 7.50927 14.874 7.72097C14.9842 7.95736 15.024 8.22051 14.9885 8.47891C14.953 8.73731 14.8438 8.98002 14.674 9.17797L10.756 13.651C10.6625 13.76 10.5465 13.8477 10.4161 13.9079C10.2856 13.9681 10.1437 13.9995 10 14Z" fill="#050505"/>
</svg>
