<svg width="12" height="12" viewBox="0 0 12 12" fill="none" xmlns="http://www.w3.org/2000/svg">
<path d="M8.99999 4.00001H8.49999V3.00001C8.49999 1.62001 7.37999 0.500013 5.99999 0.500013C4.61999 0.500013 3.49999 1.62001 3.49999 3.00001V4.00001H2.99999C2.44999 4.00001 1.99999 4.45001 1.99999 5.00001V10C1.99999 10.55 2.44999 11 2.99999 11H8.99999C9.54999 11 9.99999 10.55 9.99999 10V5.00001C9.99999 4.45001 9.54999 4.00001 8.99999 4.00001ZM5.99999 8.50001C5.44999 8.50001 4.99999 8.05001 4.99999 7.50001C4.99999 6.95001 5.44999 6.50001 5.99999 6.50001C6.54999 6.50001 6.99999 6.95001 6.99999 7.50001C6.99999 8.05001 6.54999 8.50001 5.99999 8.50001ZM7.54999 4.00001H4.44999V3.00001C4.44999 2.14501 5.14499 1.45001 5.99999 1.45001C6.85499 1.45001 7.54999 2.14501 7.54999 3.00001V4.00001Z" fill="black"/>
</svg>
