<svg width="14" height="14" viewBox="0 0 14 14" fill="none" xmlns="http://www.w3.org/2000/svg">
<path d="M12.8422 7.33905C13.1047 6.99217 13.25 6.56717 13.25 6.12499C13.25 5.42342 12.8578 4.75936 12.2266 4.38905C12.0641 4.29373 11.879 4.24356 11.6906 4.24374H7.94375L8.0375 2.32342C8.05938 1.85936 7.89531 1.41874 7.57656 1.0828C7.42013 0.917219 7.23141 0.785476 7.02206 0.695714C6.8127 0.605952 6.58716 0.560077 6.35938 0.560925C5.54688 0.560925 4.82812 1.1078 4.6125 1.89061L3.27031 6.74999H1.25C0.973437 6.74999 0.75 6.97342 0.75 7.24999V12.9375C0.75 13.214 0.973437 13.4375 1.25 13.4375H10.6453C10.7891 13.4375 10.9297 13.4094 11.0594 13.3531C11.8031 13.0359 12.2828 12.3094 12.2828 11.5031C12.2828 11.3062 12.2547 11.1125 12.1984 10.925C12.4609 10.5781 12.6062 10.1531 12.6062 9.71092C12.6062 9.51405 12.5781 9.3203 12.5219 9.1328C12.7844 8.78592 12.9297 8.36092 12.9297 7.91874C12.9266 7.72186 12.8984 7.52655 12.8422 7.33905ZM1.875 12.3125V7.87499H3.14062V12.3125H1.875ZM11.8188 6.79686L11.4766 7.09374L11.6938 7.49061C11.7653 7.62135 11.8024 7.76814 11.8016 7.91717C11.8016 8.17499 11.6891 8.4203 11.4953 8.58905L11.1531 8.88592L11.3703 9.2828C11.4419 9.41353 11.479 9.56033 11.4781 9.70936C11.4781 9.96717 11.3656 10.2125 11.1719 10.3812L10.8297 10.6781L11.0469 11.075C11.1184 11.2057 11.1555 11.3525 11.1547 11.5015C11.1547 11.8515 10.9484 12.1672 10.6297 12.3109H4.14062V7.82499L5.69531 2.19217C5.7354 2.0478 5.82146 1.92043 5.94044 1.82936C6.05943 1.73829 6.20485 1.68848 6.35469 1.68749C6.47344 1.68749 6.59062 1.72186 6.68437 1.79217C6.83906 1.9078 6.92188 2.0828 6.9125 2.26874L6.7625 5.36874H11.675C11.9531 5.53905 12.125 5.82655 12.125 6.12499C12.125 6.3828 12.0125 6.62655 11.8188 6.79686Z" fill="black"/>
</svg>
