<svg width="20" height="20" viewBox="0 0 20 20" fill="none" xmlns="http://www.w3.org/2000/svg">
<path d="M10 1.45857C14.8286 1.45857 18.5714 4.99572 18.5714 9.77286C18.5714 14.55 14.8286 18.0871 10 18.0871C9.16184 18.0891 8.32722 17.9783 7.51857 17.7579C7.36665 17.7159 7.20488 17.7277 7.06071 17.7914L5.35714 18.5421C5.25434 18.5874 5.14199 18.6068 5.02995 18.5986C4.91791 18.5903 4.80961 18.5547 4.71455 18.4948C4.61949 18.4349 4.54058 18.3527 4.48474 18.2552C4.4289 18.1577 4.39784 18.048 4.39428 17.9357L4.34786 16.4114C4.34471 16.3186 4.32269 16.2275 4.28315 16.1435C4.2436 16.0595 4.18736 15.9844 4.11786 15.9229C3.25786 15.1481 2.57311 14.1987 2.10934 13.1382C1.64558 12.0776 1.41349 10.9303 1.42857 9.77286C1.42857 4.99572 5.17143 1.45857 10 1.45857ZM4.85286 12.2043C4.80192 12.285 4.78094 12.381 4.79359 12.4756C4.80623 12.5702 4.8517 12.6573 4.92204 12.7218C4.99238 12.7862 5.08314 12.824 5.17846 12.8283C5.27378 12.8327 5.36761 12.8035 5.44357 12.7457L8.14786 10.6929C8.23723 10.6256 8.34603 10.5893 8.45786 10.5893C8.56969 10.5893 8.67848 10.6256 8.76786 10.6929L10.7679 12.1929C10.9099 12.2991 11.0725 12.3747 11.2452 12.4151C11.4179 12.4555 11.5972 12.4596 11.7716 12.4274C11.946 12.3951 12.1119 12.3271 12.2588 12.2276C12.4056 12.1281 12.5303 11.9993 12.625 11.8493L15.1429 7.855C15.1938 7.77431 15.2148 7.6783 15.2021 7.58371C15.1895 7.48913 15.144 7.402 15.0737 7.33752C15.0033 7.27305 14.9126 7.23533 14.8173 7.23095C14.7219 7.22657 14.6281 7.25582 14.5521 7.31357L11.8479 9.36643C11.7585 9.43365 11.6497 9.47 11.5379 9.47C11.426 9.47 11.3172 9.43365 11.2279 9.36643L9.22786 7.86643C9.08578 7.76021 8.92326 7.68455 8.75052 7.64419C8.57778 7.60383 8.39855 7.59965 8.22412 7.63192C8.04969 7.66419 7.88382 7.73221 7.73695 7.8317C7.59008 7.93118 7.46539 8.05999 7.37071 8.21L4.85286 12.2043Z" fill="#87d474"/>
</svg>
