<svg width="20" height="20" viewBox="0 0 20 20" fill="none" xmlns="http://www.w3.org/2000/svg">
<path d="M5.605 16.7771C6.57643 16.7771 8.17357 16.6879 10.3336 16.29C9.96 17.3057 8.98643 18.0336 7.84286 18.0336C6.89214 18.0336 6.05929 17.53 5.58929 16.7771H5.605ZM17.8021 11.2357C17.9786 12.1443 17.3414 12.9479 15.9071 13.6257C15.1214 13.9964 13.3743 14.7021 10.4886 15.2636C8.26286 15.6957 6.63214 15.795 5.60572 15.795C5.30072 15.795 5.04857 15.7864 4.85 15.775C3.26714 15.6843 2.37429 15.1771 2.19786 14.2686C1.93 12.8921 2.35357 12.3607 3.05572 11.4807L3.24072 11.2486C3.71429 10.6479 3.89929 10.0579 3.59643 8.50143C2.91857 5.01571 4.48857 2.63357 7.90286 1.96643C11.3186 1.30714 13.6671 2.92571 14.345 6.41214C14.6471 7.96857 15.04 8.44571 15.7043 8.825V8.82571L15.9629 8.97214C16.9429 9.525 17.5343 9.85857 17.8021 11.2357Z" fill="#87d474"/>
</svg>
