<?xml version="1.0" standalone="no"?>
<!DOCTYPE svg PUBLIC "-//W3C//DTD SVG 20010904//EN"
 "http://www.w3.org/TR/2001/REC-SVG-20010904/DTD/svg10.dtd">
<svg version="1.0" xmlns="http://www.w3.org/2000/svg"
 width="40.000000pt" height="43.000000pt" viewBox="0 0 40.000000 43.000000"
 preserveAspectRatio="xMidYMid meet">

<g transform="translate(0.000000,43.000000) scale(0.100000,-0.100000)"
fill="#000000" stroke="none">
<path d="M32 394 c-21 -14 -22 -21 -22 -164 0 -170 -2 -167 94 -191 46 -11 50
-11 67 9 9 12 29 22 42 22 32 0 57 24 57 56 0 30 -30 33 -37 4 -3 -13 -14 -20
-29 -20 -24 0 -24 1 -24 108 0 112 -3 122 -35 140 -17 10 -12 11 32 12 l52 0
3 -47 c2 -35 7 -48 18 -48 11 0 16 14 18 52 3 44 0 53 -20 67 -31 22 -184 22
-216 0z"/>
<path d="M290 251 c0 -15 -8 -21 -32 -23 -47 -4 -44 -32 4 -36 26 -2 35 -7 32
-17 -11 -27 16 -25 48 4 l33 30 -29 30 c-34 35 -56 40 -56 12z"/>
</g>
</svg>
