<svg width="24" height="24" viewBox="0 0 24 24" fill="none" xmlns="http://www.w3.org/2000/svg">
<g clip-path="url(#clip0_2:59)">
<path fill-rule="evenodd" clip-rule="evenodd" d="M4.96835 22.925L4.32035 22.982C3.9657 23.0138 3.60826 22.975 3.26873 22.8677C2.9292 22.7604 2.61433 22.5868 2.34235 22.357C2.06846 22.1292 1.84256 21.8492 1.67776 21.5333C1.51296 21.2175 1.41255 20.872 1.38235 20.517L0.0103524 4.82001C-0.024379 4.42468 0.0284009 4.02654 0.164939 3.65392C0.301477 3.28129 0.518422 2.94331 0.800353 2.66401C1.27035 2.19201 1.91135 1.93301 2.57435 1.87401L5.15435 1.64901C5.23844 1.64186 5.32298 1.65619 5.40001 1.69068C5.47704 1.72516 5.54405 1.77865 5.59474 1.84613C5.64543 1.91362 5.67813 1.99287 5.68978 2.07647C5.70143 2.16006 5.69165 2.24524 5.66135 2.32401C5.52758 2.68087 5.44314 3.05431 5.41035 3.43401L4.01735 19.35C3.96763 19.9042 4.02838 20.4628 4.19609 20.9934C4.3638 21.524 4.63513 22.016 4.99435 22.441C4.99435 22.441 5.45335 22.805 4.96835 22.926V22.925ZM13.4923 6.59901C13.52 6.83175 13.5006 7.06767 13.4354 7.29277C13.3701 7.51788 13.2603 7.72758 13.1124 7.90944C12.9646 8.0913 12.7817 8.24161 12.5747 8.35144C12.3676 8.46128 12.1406 8.5284 11.9071 8.54884C11.6737 8.56927 11.4385 8.5426 11.2155 8.4704C10.9925 8.3982 10.7863 8.28194 10.6091 8.12853C10.4319 7.97512 10.2873 7.78768 10.184 7.57733C10.0806 7.36698 10.0205 7.13801 10.0074 6.90401C9.98176 6.44999 10.1339 6.00383 10.4315 5.66003C10.7292 5.31624 11.149 5.10181 11.602 5.06216C12.055 5.02252 12.5057 5.16077 12.8585 5.44763C13.2114 5.73449 13.4387 6.14744 13.4923 6.59901ZM19.3424 9.61001C19.2746 9.52931 19.1916 9.46284 19.098 9.41443C19.0045 9.36603 18.9022 9.33666 18.7972 9.32801C18.6923 9.31936 18.5866 9.33161 18.4864 9.36405C18.3862 9.39649 18.2934 9.44848 18.2133 9.51701L14.4804 12.712C14.3712 12.8056 14.3035 12.9385 14.2919 13.0817C14.2802 13.225 14.3257 13.3671 14.4183 13.477L15.2553 14.47C15.3215 14.5449 15.372 14.6324 15.404 14.7271C15.4359 14.8218 15.4485 14.922 15.4411 15.0217C15.4338 15.1214 15.4065 15.2186 15.3611 15.3076C15.3156 15.3967 15.2528 15.4757 15.1763 15.5401C15.0998 15.6045 15.0113 15.653 14.9158 15.6826C14.8203 15.7123 14.7199 15.7226 14.6204 15.7129C14.5209 15.7032 14.4244 15.6737 14.3364 15.6262C14.2485 15.5786 14.1709 15.514 14.1084 15.436L11.6064 12.455C11.4743 12.2976 11.2867 12.1973 11.0824 12.1749C10.8782 12.1526 10.6733 12.2099 10.5104 12.335L7.00035 15L6.50035 19.25C6.44035 19.924 6.82635 21.44 7.50035 21.5L19.4164 22.666C19.7414 22.692 20.4164 22.627 20.6664 22.416C20.9184 22.206 21.5564 21.574 21.5834 21.25L22.4164 13.166L19.3434 9.60901L19.3424 9.61001Z" fill="#87d474"/>
<path d="M19.61 23.463L8.006 22.448C7.27634 22.3824 6.60238 22.0305 6.13159 21.4692C5.66081 20.9079 5.43156 20.1829 5.49401 19.453L6.88 3.58998C6.94606 2.8605 7.29837 2.18687 7.85984 1.71648C8.4213 1.24609 9.14622 1.01724 9.876 1.07998L21.479 2.09498C22.2086 2.16031 22.8827 2.51201 23.3537 3.07312C23.8246 3.63423 24.0542 4.35906 23.992 5.08898L22.604 20.951C22.5387 21.6806 22.187 22.3547 21.6259 22.8257C21.0648 23.2966 20.3399 23.5261 19.61 23.464V23.463ZM19.74 21.969L19.822 21.973C20.1426 21.9786 20.4534 21.8628 20.6921 21.6487C20.9308 21.4347 21.0798 21.1383 21.109 20.819L22.497 4.95698C22.5248 4.62343 22.4198 4.29239 22.2048 4.03584C21.9898 3.77929 21.6823 3.61798 21.349 3.58698L9.74501 2.57298C9.41113 2.54521 9.07981 2.65049 8.82321 2.86589C8.5666 3.08128 8.40551 3.38935 8.375 3.72298L6.988 19.583C6.96022 19.9167 7.06536 20.2479 7.28055 20.5045C7.49574 20.761 7.80355 20.9222 8.137 20.953L19.74 21.969Z" fill="#87d474"/>
</g>
<defs>
<clipPath id="clip0_2:59">
<rect width="24" height="24" fill="white"/>
</clipPath>
</defs>
</svg>
