<svg width="12" height="12" viewBox="0 0 12 12" fill="none" xmlns="http://www.w3.org/2000/svg">
<path fill-rule="evenodd" clip-rule="evenodd" d="M11.625 6.00002C11.625 8.42252 10.095 10.4873 7.94774 11.277L8.00024 11.25C8.87549 10.5 9.36074 9.02476 9.50024 8.37451C9.66074 7.62451 9.72749 7.39952 9.12524 6.90452C8.89274 6.71477 8.61749 6.75753 8.34524 6.54753C8.16074 6.40503 8.07825 6.10502 7.89075 6.00002C7.44525 5.74727 7.0605 6.08252 6.42525 6.16727C6.13446 6.2 5.84003 6.16852 5.56274 6.07503C5.55749 6.07503 5.55749 6.07503 5.55299 6.07203L5.49074 6.04953C5.36774 5.98803 5.433 5.89502 5.49525 5.77952H5.49074C5.55524 5.65202 5.55525 5.49752 5.45325 5.38277C5.31075 5.22227 5.04825 5.22228 4.85025 5.21478C4.77075 5.21252 4.69274 5.21477 4.61549 5.21777L4.61324 5.21478C4.58324 5.21478 4.55024 5.21777 4.52024 5.21777H4.49249C4.25024 5.22302 3.99299 5.19228 3.82274 4.98228C3.62549 4.71753 3.60524 4.43253 3.89549 4.16478C4.10549 3.96978 4.54274 3.56478 5.25074 3.99978C5.70299 4.27728 6.12524 4.50003 6.50024 4.37478C6.74774 4.29228 6.86025 4.14753 6.57075 3.72228C6.45546 3.56387 6.39873 3.37035 6.41024 3.17477C6.46049 2.59277 6.92549 2.54476 7.28324 2.27477C7.63274 2.00777 7.79325 1.56751 7.69275 1.18201C7.61325 0.872264 7.31024 0.52728 6.73274 0.42453C8.08656 0.600604 9.32992 1.26367 10.2304 2.28978C11.1309 3.31589 11.6269 4.63481 11.6257 6.00002" fill="black"/>
<path fill-rule="evenodd" clip-rule="evenodd" d="M7.58026 11.397C6.74183 11.6428 5.85768 11.6898 4.99793 11.5343C4.13817 11.3789 3.32646 11.0252 2.62718 10.5014C1.9279 9.97765 1.36028 9.29814 0.969347 8.51678C0.578415 7.73543 0.374921 6.87372 0.375004 6.00002C0.373858 5.06373 0.607075 4.14202 1.05339 3.31895C1.49971 2.49587 2.14493 1.79761 2.93025 1.28778C2.36918 1.7511 1.94132 2.35521 1.6905 3.03827C1.12575 4.70102 1.52775 6.09453 3.408 6.09453C4.03275 6.09453 4.458 6.51528 4.40775 7.87578C4.398 8.17803 4.79776 9.21077 6.24526 9.29327C6.77026 9.32327 7.13325 10.083 7.24275 10.5983C7.28775 10.8158 7.33801 11.0858 7.43551 11.3258C7.44803 11.3523 7.46912 11.3738 7.49539 11.3869C7.52165 11.4 7.55155 11.4038 7.58026 11.3978" fill="black"/>
<path d="M12 6C12 7.5913 11.3679 9.11743 10.2426 10.2426C9.11742 11.3679 7.5913 12 6 12C4.4087 12 2.88258 11.3679 1.75736 10.2426C0.632142 9.11743 0 7.5913 0 6C0 4.4087 0.632142 2.88257 1.75736 1.75735C2.88258 0.632136 4.4087 0 6 0C7.5913 0 9.11742 0.632136 10.2426 1.75735C11.3679 2.88257 12 4.4087 12 6ZM11.25 6C11.25 4.60761 10.6969 3.27226 9.71231 2.2877C8.72774 1.30313 7.39239 0.75 6 0.75C4.60761 0.75 3.27226 1.30313 2.28769 2.2877C1.30313 3.27226 0.75 4.60761 0.75 6C0.75 7.39239 1.30313 8.72774 2.28769 9.7123C3.27226 10.6969 4.60761 11.25 6 11.25C7.39239 11.25 8.72774 10.6969 9.71231 9.7123C10.6969 8.72774 11.25 7.39239 11.25 6Z" fill="black"/>
</svg>
